<svg width="380" height="260" viewBox="0 0 380 260" fill="none" xmlns="http://www.w3.org/2000/svg">
<rect width="190" height="130" transform="translate(95)" fill="#00A3E0"/>
<rect width="190" height="130" transform="translate(190 130)" fill="#8FC0A8"/>
<rect width="190" height="130" transform="translate(0 130)" fill="#FAF05C"/>
<path d="M47.1601 3.88616H45.1893V18.9161H47.1601V12.484C47.8315 13.6535 49.2825 14.2166 50.6902 14.2166C53.4623 14.2166 55.758 12.1808 55.758 8.97557C55.758 5.77033 53.4623 3.66959 50.6902 3.66959C49.2825 3.66959 47.8315 4.3193 47.1601 5.46713V3.88616ZM47.1818 8.99722C47.1818 6.85318 48.7194 5.59707 50.4953 5.59707C52.3145 5.59707 53.7655 6.98312 53.7655 8.99722C53.7655 11.0113 52.3145 12.2891 50.4953 12.2891C48.871 12.2891 47.1818 11.1629 47.1818 8.99722ZM60.3574 10.3183C60.3574 7.63283 61.1803 5.55376 63.1295 5.55376C63.541 5.55376 64.0824 5.64038 64.6238 5.90027L64.927 4.05942C64.6455 3.86451 63.8875 3.66959 63.1728 3.66959C61.8517 3.66959 60.8771 4.38428 60.3574 6.16015V3.88616H58.3866V14H60.3574V10.3183ZM71.2901 14.2166C74.1705 14.2166 76.5961 12.1158 76.5961 8.9106C76.5961 5.70535 74.1705 3.66959 71.2901 3.66959C68.4097 3.66959 66.0058 5.70535 66.0058 8.9106C66.0058 12.1158 68.4097 14.2166 71.2901 14.2166ZM71.2901 12.3108C69.4709 12.3108 67.9549 10.968 67.9549 8.9106C67.9549 6.87483 69.4709 5.59707 71.2901 5.59707C73.1093 5.59707 74.6253 6.87483 74.6253 8.9106C74.6253 10.968 73.1093 12.3108 71.2901 12.3108ZM80.7348 15.451C80.4749 15.581 79.3487 16.209 79.0888 16.3173C80.0634 18.0932 81.796 19.0461 83.6585 19.0461C86.9937 19.0461 89.181 17.2269 89.181 12.4624V3.88616H87.2319V5.46713C86.5605 4.29765 85.0878 3.66959 83.6801 3.66959C80.908 3.66959 78.5474 5.74867 78.5474 8.97557C78.5474 12.1808 80.908 14.2166 83.6801 14.2166C85.0878 14.2166 86.6255 13.5452 87.2319 12.3541C87.2319 12.4407 87.2535 12.5057 87.2535 12.5923C87.2535 15.9491 85.8458 17.1836 83.6585 17.1836C82.5323 17.1836 81.3412 16.5772 80.7348 15.451ZM87.2102 8.95391C87.2102 11.098 85.4777 12.2891 83.8534 12.2891C82.0342 12.2891 80.5615 11.0113 80.5615 8.95391C80.5615 6.98312 82.0342 5.59707 83.8534 5.59707C85.6509 5.59707 87.2102 6.78821 87.2102 8.95391ZM94.4291 10.3183C94.4291 7.63283 95.2521 5.55376 97.2012 5.55376C97.6127 5.55376 98.1541 5.64038 98.6956 5.90027L98.9988 4.05942C98.7172 3.86451 97.9592 3.66959 97.2445 3.66959C95.9235 3.66959 94.9489 4.38428 94.4291 6.16015V3.88616H92.4583V14H94.4291V10.3183ZM102.048 8.1526C102.287 6.46335 103.586 5.44547 105.254 5.44547C106.878 5.44547 108.091 6.46335 108.329 8.1526H102.048ZM110.278 8.9106C110.278 5.70535 108.134 3.66959 105.254 3.66959C102.373 3.66959 100.078 5.70535 100.078 8.9106C100.078 12.1158 102.373 14.2166 105.254 14.2166C107.203 14.2166 109.044 13.307 109.91 11.5311C109.368 11.3145 108.74 11.098 108.221 10.8814C107.658 11.8776 106.531 12.4407 105.319 12.4407C103.608 12.4407 102.287 11.3795 102.048 9.69025H110.256C110.278 9.47368 110.278 9.14882 110.278 8.9106ZM115.079 9.53865L116.465 9.86351C117.201 10.0368 117.829 10.4049 117.807 11.1413C117.786 11.8776 117.179 12.3974 116.27 12.4624C115.62 12.5057 115.1 12.3757 114.667 12.1158C114.191 11.8776 113.909 11.4012 113.844 10.968H112.047C112.112 13.0471 113.996 14.2166 115.815 14.2166C117.916 14.2166 119.735 13.0687 119.735 11.1846C119.735 10.0368 119.215 8.759 117.114 8.23923L115.62 7.87106C115.1 7.71946 114.624 7.50289 114.429 7.0914C114.321 6.85318 114.321 6.61495 114.407 6.29009C114.559 5.74867 115.187 5.3805 115.923 5.3805C116.703 5.3805 117.396 5.77033 117.504 6.52832H119.388C119.215 4.4709 117.591 3.66959 115.88 3.66959C114.082 3.66959 112.523 4.7741 112.371 6.24678C112.198 8.10929 113.238 9.04054 115.079 9.53865ZM124.596 9.53865L125.982 9.86351C126.718 10.0368 127.346 10.4049 127.325 11.1413C127.303 11.8776 126.697 12.3974 125.787 12.4624C125.137 12.5057 124.618 12.3757 124.184 12.1158C123.708 11.8776 123.426 11.4012 123.361 10.968H121.564C121.629 13.0471 123.513 14.2166 125.332 14.2166C127.433 14.2166 129.252 13.0687 129.252 11.1846C129.252 10.0368 128.732 8.759 126.632 8.23923L125.137 7.87106C124.618 7.71946 124.141 7.50289 123.946 7.0914C123.838 6.85318 123.838 6.61495 123.925 6.29009C124.076 5.74867 124.704 5.3805 125.44 5.3805C126.22 5.3805 126.913 5.77033 127.021 6.52832H128.906C128.732 4.4709 127.108 3.66959 125.397 3.66959C123.6 3.66959 122.04 4.7741 121.889 6.24678C121.715 8.10929 122.755 9.04054 124.596 9.53865ZM133.767 14H131.817V3.88616H133.767V14ZM131.428 0.161153C131.428 0.897492 132.056 1.43892 132.792 1.43892C133.55 1.43892 134.156 0.897492 134.156 0.161153C134.156 -0.575186 133.55 -1.11661 132.792 -1.11661C132.056 -1.11661 131.428 -0.575186 131.428 0.161153ZM135.785 3.88616L139.986 14H141.892H141.87L146.094 3.88616H143.993L140.939 11.4878L137.864 3.88616H135.785Z" transform="translate(95 59.3827)" fill="white"/>
<path d="M14.1208 -1.61472V14H16.0916V-1.61472H14.1208ZM23.9999 14.2166C21.1196 14.2166 18.7156 12.1158 18.7156 8.9106C18.7156 5.70535 21.1196 3.66959 23.9999 3.66959C26.8803 3.66959 29.3059 5.70535 29.3059 8.9106C29.3059 12.1158 26.8803 14.2166 23.9999 14.2166ZM23.9999 12.3108C25.8191 12.3108 27.3351 10.968 27.3351 8.9106C27.3351 6.87483 25.8191 5.59707 23.9999 5.59707C22.1808 5.59707 20.6648 6.87483 20.6648 8.9106C20.6648 10.968 22.1808 12.3108 23.9999 12.3108ZM20.838 0.356066C20.838 1.09241 21.4444 1.63383 22.1808 1.63383C22.8954 1.63383 23.5018 1.09241 23.5018 0.356066C23.5018 -0.380273 22.8954 -0.921699 22.1808 -0.921699C21.4444 -0.921699 20.838 -0.380273 20.838 0.356066ZM24.4981 0.356066C24.4981 1.09241 25.1045 1.63383 25.8408 1.63383C26.5771 1.63383 27.1835 1.09241 27.1835 0.356066C27.1835 -0.380273 26.5771 -0.921699 25.8408 -0.921699C25.1045 -0.921699 24.4981 -0.380273 24.4981 0.356066ZM34.2243 9.53865L35.6103 9.86351C36.3467 10.0368 36.9747 10.4049 36.9531 11.1413C36.9314 11.8776 36.325 12.3974 35.4154 12.4624C34.7657 12.5057 34.2459 12.3757 33.8128 12.1158C33.3363 11.8776 33.0548 11.4012 32.9898 10.968H31.1923C31.2573 13.0471 33.1414 14.2166 34.9606 14.2166C37.0613 14.2166 38.8805 13.0687 38.8805 11.1846C38.8805 10.0368 38.3608 8.759 36.26 8.23923L34.7657 7.87106C34.2459 7.71946 33.7695 7.50289 33.5746 7.0914C33.4663 6.85318 33.4663 6.61495 33.5529 6.29009C33.7045 5.74867 34.3326 5.3805 35.0689 5.3805C35.8485 5.3805 36.5416 5.77033 36.6499 6.52832H38.534C38.3608 4.4709 36.7365 3.66959 35.0256 3.66959C33.228 3.66959 31.6687 4.7741 31.5171 6.24678C31.3439 8.10929 32.3834 9.04054 34.2243 9.53865ZM48.3545 9.34374C48.3545 11.5094 46.9251 12.2891 45.4957 12.2891C44.1097 12.2891 43.2867 11.2929 43.2867 9.60362V3.88616H41.3159V9.73356C41.2943 12.5706 42.6803 14.2166 45.2142 14.2166C46.3187 14.2166 47.7481 13.6968 48.3545 12.484V14H50.3253V3.88616H48.3545V9.34374ZM55.5776 8.54243C55.5776 6.39838 57.007 5.59707 58.4363 5.59707C59.8224 5.59707 60.667 6.59329 60.667 8.28254V14C60.9702 14 62.3129 14 62.6378 14V8.1526C62.6378 5.31553 61.2517 3.66959 58.7395 3.66959C57.635 3.66959 56.184 4.18936 55.5776 5.40216V3.88616H53.6068V14H55.5776V8.54243ZM67.326 15.451C67.0662 15.581 65.94 16.209 65.6801 16.3173C66.6547 18.0932 68.3872 19.0461 70.2497 19.0461C73.5849 19.0461 75.7723 17.2269 75.7723 12.4624V3.88616H73.8231V5.46713C73.1518 4.29765 71.6791 3.66959 70.2714 3.66959C67.4993 3.66959 65.1387 5.74867 65.1387 8.97557C65.1387 12.1808 67.4993 14.2166 70.2714 14.2166C71.6791 14.2166 73.2168 13.5452 73.8231 12.3541C73.8231 12.4407 73.8448 12.5057 73.8448 12.5923C73.8448 15.9491 72.4371 17.1836 70.2497 17.1836C69.1236 17.1836 67.9324 16.5772 67.326 15.451ZM73.8015 8.95391C73.8015 11.098 72.0689 12.2891 70.4446 12.2891C68.6255 12.2891 67.1528 11.0113 67.1528 8.95391C67.1528 6.98312 68.6255 5.59707 70.4446 5.59707C72.2422 5.59707 73.8015 6.78821 73.8015 8.95391ZM81.3452 9.53865L82.7313 9.86351C83.4676 10.0368 84.0957 10.4049 84.074 11.1413C84.0524 11.8776 83.446 12.3974 82.5364 12.4624C81.8867 12.5057 81.3669 12.3757 80.9338 12.1158C80.4573 11.8776 80.1758 11.4012 80.1108 10.968H78.3133C78.3782 13.0471 80.2624 14.2166 82.0816 14.2166C84.1823 14.2166 86.0015 13.0687 86.0015 11.1846C86.0015 10.0368 85.4817 8.759 83.381 8.23923L81.8867 7.87106C81.3669 7.71946 80.8904 7.50289 80.6955 7.0914C80.5872 6.85318 80.5872 6.61495 80.6739 6.29009C80.8255 5.74867 81.4535 5.3805 82.1899 5.3805C82.9695 5.3805 83.6625 5.77033 83.7708 6.52832H85.655C85.4817 4.4709 83.8575 3.66959 82.1466 3.66959C80.349 3.66959 78.7897 4.7741 78.6381 6.24678C78.4649 8.10929 79.5044 9.04054 81.3452 9.53865ZM93.1798 14.2166C96.0602 14.2166 98.4858 12.1158 98.4858 8.9106C98.4858 5.70535 96.0602 3.66959 93.1798 3.66959C90.2994 3.66959 87.8955 5.70535 87.8955 8.9106C87.8955 12.1158 90.2994 14.2166 93.1798 14.2166ZM93.1798 12.3108C91.3606 12.3108 89.8446 10.968 89.8446 8.9106C89.8446 6.87483 91.3606 5.59707 93.1798 5.59707C94.999 5.59707 96.515 6.87483 96.515 8.9106C96.515 10.968 94.999 12.3108 93.1798 12.3108ZM103.079 10.3183C103.079 7.63283 103.902 5.55376 105.851 5.55376C106.263 5.55376 106.804 5.64038 107.346 5.90027L107.649 4.05942C107.367 3.86451 106.609 3.66959 105.895 3.66959C104.574 3.66959 103.599 4.38428 103.079 6.16015V3.88616H101.108V14H103.079V10.3183ZM111.602 14H109.653V3.88616H111.602V14ZM109.263 0.161153C109.263 0.897492 109.891 1.43892 110.627 1.43892C111.385 1.43892 111.992 0.897492 111.992 0.161153C111.992 -0.575186 111.385 -1.11661 110.627 -1.11661C109.891 -1.11661 109.263 -0.575186 109.263 0.161153ZM116.197 8.1526C116.436 6.46335 117.735 5.44547 119.403 5.44547C121.027 5.44547 122.24 6.46335 122.478 8.1526H116.197ZM124.427 8.9106C124.427 5.70535 122.283 3.66959 119.403 3.66959C116.522 3.66959 114.227 5.70535 114.227 8.9106C114.227 12.1158 116.522 14.2166 119.403 14.2166C121.352 14.2166 123.193 13.307 124.059 11.5311C123.517 11.3145 122.889 11.098 122.37 10.8814C121.807 11.8776 120.68 12.4407 119.468 12.4407C117.757 12.4407 116.436 11.3795 116.197 9.69025H124.405C124.427 9.47368 124.427 9.14882 124.427 8.9106ZM128.903 8.54243C128.903 6.39838 130.332 5.59707 131.761 5.59707C133.148 5.59707 133.992 6.59329 133.992 8.28254V14C134.295 14 135.638 14 135.963 14V8.1526C135.963 5.31553 134.577 3.66959 132.065 3.66959C130.96 3.66959 129.509 4.18936 128.903 5.40216V3.88616H126.932V14H128.903V8.54243ZM141.864 3.88616V0.0745246H139.893V3.88616H138.074V5.55376H139.893V14H141.864V5.55376H144.008V3.88616H141.864ZM148.191 14H146.241V3.88616H148.191V14ZM145.852 0.161153C145.852 0.897492 146.48 1.43892 147.216 1.43892C147.974 1.43892 148.58 0.897492 148.58 0.161153C148.58 -0.575186 147.974 -1.11661 147.216 -1.11661C146.48 -1.11661 145.852 -0.575186 145.852 0.161153ZM152.786 8.1526C153.024 6.46335 154.324 5.44547 155.991 5.44547C157.615 5.44547 158.828 6.46335 159.066 8.1526H152.786ZM161.016 8.9106C161.016 5.70535 158.871 3.66959 155.991 3.66959C153.111 3.66959 150.815 5.70535 150.815 8.9106C150.815 12.1158 153.111 14.2166 155.991 14.2166C157.94 14.2166 159.781 13.307 160.647 11.5311C160.106 11.3145 159.478 11.098 158.958 10.8814C158.395 11.8776 157.269 12.4407 156.056 12.4407C154.345 12.4407 153.024 11.3795 152.786 9.69025H160.994C161.016 9.47368 161.016 9.14882 161.016 8.9106ZM165.491 10.3183C165.491 7.63283 166.314 5.55376 168.263 5.55376C168.675 5.55376 169.216 5.64038 169.758 5.90027L170.061 4.05942C169.779 3.86451 169.021 3.66959 168.307 3.66959C166.986 3.66959 166.011 4.38428 165.491 6.16015V3.88616H163.521V14H165.491V10.3183ZM174.794 3.88616V0.0745246H172.823V3.88616H171.004V5.55376H172.823V14H174.794V5.55376H176.938V3.88616H174.794Z" transform="translate(190 186.173)" fill="white"/>
<path d="M45.8483 9.0622L50.4613 14H53.0601L47.6892 8.26089L52.0206 3.88616H49.3351L45.8483 7.41626V-1.61472H43.8992V14H45.8483V9.0622ZM58.7485 14.2166C61.6289 14.2166 64.0545 12.1158 64.0545 8.9106C64.0545 5.70535 61.6289 3.66959 58.7485 3.66959C55.8681 3.66959 53.4642 5.70535 53.4642 8.9106C53.4642 12.1158 55.8681 14.2166 58.7485 14.2166ZM58.7485 12.3108C56.9293 12.3108 55.4133 10.968 55.4133 8.9106C55.4133 6.87483 56.9293 5.59707 58.7485 5.59707C60.5677 5.59707 62.0837 6.87483 62.0837 8.9106C62.0837 10.968 60.5677 12.3108 58.7485 12.3108ZM71.2901 14.2166C74.1705 14.2166 76.5961 12.1158 76.5961 8.9106C76.5961 5.70535 74.1705 3.66959 71.2901 3.66959C68.4097 3.66959 66.0058 5.70535 66.0058 8.9106C66.0058 12.1158 68.4097 14.2166 71.2901 14.2166ZM71.2901 12.3108C69.4709 12.3108 67.9549 10.968 67.9549 8.9106C67.9549 6.87483 69.4709 5.59707 71.2901 5.59707C73.1093 5.59707 74.6253 6.87483 74.6253 8.9106C74.6253 10.968 73.1093 12.3108 71.2901 12.3108ZM81.1896 3.88616H79.2188V18.9161H81.1896V12.484C81.8609 13.6535 83.312 14.2166 84.7197 14.2166C87.4918 14.2166 89.7874 12.1808 89.7874 8.97557C89.7874 5.77033 87.4918 3.66959 84.7197 3.66959C83.312 3.66959 81.8609 4.3193 81.1896 5.46713V3.88616ZM81.2112 8.99722C81.2112 6.85318 82.7489 5.59707 84.5248 5.59707C86.3439 5.59707 87.795 6.98312 87.795 8.99722C87.795 11.0113 86.3439 12.2891 84.5248 12.2891C82.9005 12.2891 81.2112 11.1629 81.2112 8.99722ZM93.7155 8.1526C93.9537 6.46335 95.2531 5.44547 96.9207 5.44547C98.545 5.44547 99.7578 6.46335 99.996 8.1526H93.7155ZM101.945 8.9106C101.945 5.70535 99.8011 3.66959 96.9207 3.66959C94.0403 3.66959 91.7447 5.70535 91.7447 8.9106C91.7447 12.1158 94.0403 14.2166 96.9207 14.2166C98.8698 14.2166 100.711 13.307 101.577 11.5311C101.036 11.3145 100.407 11.098 99.8877 10.8814C99.3246 11.8776 98.1985 12.4407 96.9857 12.4407C95.2748 12.4407 93.9537 11.3795 93.7155 9.69025H101.923C101.945 9.47368 101.945 9.14882 101.945 8.9106ZM106.421 10.3183C106.421 7.63283 107.244 5.55376 109.193 5.55376C109.604 5.55376 110.146 5.64038 110.687 5.90027L110.991 4.05942C110.709 3.86451 109.951 3.66959 109.236 3.66959C107.915 3.66959 106.941 4.38428 106.421 6.16015V3.88616H104.45V14H106.421V10.3183ZM120.754 14H122.703V3.88616H120.754V5.40216C120.082 4.25433 118.61 3.66959 117.202 3.66959C114.43 3.66959 112.069 5.70535 112.069 8.93225C112.069 12.1375 114.43 14.2166 117.202 14.2166C118.61 14.2166 120.082 13.5885 120.754 12.4407V14ZM120.732 8.9106C120.732 11.0546 119.173 12.2891 117.375 12.2891C115.556 12.2891 114.083 10.903 114.083 8.9106C114.083 6.89649 115.556 5.59707 117.375 5.59707C119 5.59707 120.732 6.74489 120.732 8.9106ZM128.73 3.88616V0.0745246H126.759V3.88616H124.94V5.55376H126.759V14H128.73V5.55376H130.874V3.88616H128.73ZM135.057 14H133.108V3.88616H135.057V14ZM132.718 0.161153C132.718 0.897492 133.346 1.43892 134.082 1.43892C134.84 1.43892 135.447 0.897492 135.447 0.161153C135.447 -0.575186 134.84 -1.11661 134.082 -1.11661C133.346 -1.11661 132.718 -0.575186 132.718 0.161153ZM137.075 3.88616L141.276 14H143.182H143.161L147.384 3.88616H145.283L142.229 11.4878L139.154 3.88616H137.075Z" transform="translate(0 186.173)" fill="#53565A"/>
</svg>
