<svg width="200" height="66" viewBox="0 0 200 66" fill="none" xmlns="http://www.w3.org/2000/svg">
<path fill-rule="evenodd" clip-rule="evenodd" d="M21.0556 0H16.1026V5.03789C18.8387 5.03789 21.0556 2.78302 21.0556 0ZM100 19.4054C100 17.4719 99.1396 15.3204 95.6619 14.4453L93.1874 13.825C92.3281 13.5702 91.5391 13.2048 91.2161 12.5128C91.037 12.1116 91.037 11.7094 91.1799 11.1628C91.4304 10.2508 92.4709 9.63156 93.6896 9.63156C94.9806 9.63156 96.1278 10.2876 96.3069 11.564H99.4264C99.1396 8.09931 96.4508 6.75027 93.6181 6.75027C90.6425 6.75027 88.0614 8.61006 87.8108 11.0901C87.523 14.2252 89.2438 15.7943 92.2918 16.6326L94.5862 17.1802C95.8048 17.4719 96.8453 18.0922 96.8091 19.3317C96.7728 20.5712 95.7696 21.4463 94.2631 21.5559C93.1874 21.6285 92.328 21.4105 91.6106 20.9724C90.8226 20.5712 90.3557 19.7688 90.2481 19.04H87.2725C87.3801 22.5405 90.4986 24.5098 93.5104 24.5098C96.9882 24.5098 100 22.5774 100 19.4054ZM81.8153 24.1455H85.0777V0H81.8153V24.1455ZM45.9331 14.955C45.9331 11.346 48.2989 9.99594 50.6657 9.99594C52.96 9.99594 54.3577 11.6735 54.3577 14.518V24.1454H57.6201V14.2989C57.6201 9.52204 55.3258 6.75027 51.1678 6.75027C49.3394 6.75027 46.9364 7.62541 45.9331 9.66738V7.11466H42.6707V24.1454H45.9331V14.955ZM63.9497 15.5753C63.9497 12.1843 66.3869 9.99597 69.3987 9.99597C72.0875 9.99597 74.9565 11.9284 74.9565 15.5753C74.9565 19.1854 72.3743 21.2642 69.3987 21.2642C66.3869 21.2642 63.9497 18.9305 63.9497 15.5753ZM74.9917 21.519V24.1454H78.2179V7.11466H74.9917V9.66738C73.8798 7.73493 71.4425 6.75027 69.113 6.75027C64.5233 6.75027 60.6149 10.1781 60.6149 15.6111C60.6149 21.0093 64.5233 24.5098 69.113 24.5098C71.4425 24.5098 73.8798 23.4525 74.9917 21.519ZM31.034 9.99597C34.0096 9.99597 36.5907 12.0021 36.5907 15.649C36.5907 19.258 33.7228 21.2642 31.034 21.2642C28.0231 21.2642 25.5839 19.1127 25.5839 15.649C25.5839 12.3297 28.0231 9.99597 31.034 9.99597ZM30.7472 24.5098C33.0777 24.5098 35.6237 23.3788 36.6269 21.3737C36.6269 21.519 36.6632 21.6285 36.6632 21.7749C36.6632 27.4269 34.3326 29.5058 30.7109 29.5058C28.8473 29.5058 26.875 28.4843 25.8717 26.5886C25.442 26.8067 23.5774 27.864 23.1467 28.0472C24.7598 31.037 27.6287 32.6419 30.7109 32.6419C36.2325 32.6419 39.8531 29.5784 39.8531 21.5559V7.11466H36.6269V9.7769C35.515 7.8076 33.0777 6.75027 30.7472 6.75027C26.1585 6.75027 22.2501 10.2508 22.2501 15.6848C22.2501 21.082 26.1585 24.5098 30.7472 24.5098ZM16.1026 24.1455H19.3298V7.11569H16.1026V24.1455ZM12.7265 19.4054C12.7265 17.4719 11.8662 15.3204 8.38843 14.4453L5.91497 13.825C5.05459 13.5702 4.26566 13.2048 3.94365 12.5128C3.76352 12.1116 3.76352 11.7094 3.90742 11.1628C4.15799 10.2508 5.19748 9.63156 6.41711 9.63156C7.70818 9.63156 8.85434 10.2876 9.03446 11.564H12.154C11.8662 8.09931 9.17736 6.75027 6.34566 6.75027C3.37006 6.75027 0.787924 8.61006 0.537358 11.0901C0.250566 14.2252 1.97132 15.7943 5.01836 16.6326L7.31371 17.1802C8.53132 17.4719 9.57283 18.0922 9.5356 19.3317C9.50038 20.5712 8.4961 21.4463 6.99069 21.5559C5.91497 21.6285 5.05459 21.4105 4.33711 20.9724C3.54918 20.5712 3.08226 19.7688 2.97459 19.04H0C0.106667 22.5405 3.22616 24.5098 6.23799 24.5098C9.71472 24.5098 12.7265 22.5774 12.7265 19.4054Z" transform="scale(2)" fill="white"/>
</svg>
